<svg width="175" height="172" viewBox="0 0 175 172" fill="none" xmlns="http://www.w3.org/2000/svg">
<path d="M116.32 171.921C123.916 171.921 131.437 169.698 138.455 165.378C145.472 161.058 151.848 154.726 157.219 146.744C162.59 138.762 166.85 129.285 169.757 118.856C172.664 108.427 174.16 97.249 174.16 85.9605C174.16 74.672 172.664 63.4941 169.757 53.0649C166.85 42.6356 162.59 33.1594 157.219 25.1773C151.848 17.1951 145.472 10.8633 138.455 6.54335C131.437 2.22343 123.916 -9.86872e-07 116.32 0L116.32 171.921Z" fill="white"/>
<path d="M58.166 171.921C65.7616 171.921 73.2829 169.698 80.3003 165.378C87.3177 161.058 93.6939 154.726 99.0648 146.744C104.436 138.762 108.696 129.285 111.603 118.856C114.51 108.427 116.006 97.249 116.006 85.9605C116.006 74.672 114.51 63.4941 111.603 53.0649C108.696 42.6356 104.436 33.1594 99.0648 25.1773C93.6939 17.1951 87.3177 10.8633 80.3003 6.54335C73.2829 2.22343 65.7616 -9.86872e-07 58.166 0L58.166 171.921Z" fill="white"/>
<path d="M5.0565e-06 171.921C7.59561 171.921 15.1168 169.698 22.1343 165.378C29.1517 161.058 35.5279 154.726 40.8988 146.744C46.2697 138.762 50.5301 129.285 53.4368 118.856C56.3435 108.427 57.8396 97.249 57.8396 85.9605C57.8396 74.672 56.3435 63.4941 53.4368 53.0649C50.5301 42.6356 46.2697 33.1594 40.8988 25.1773C35.5279 17.1951 29.1517 10.8633 22.1343 6.54335C15.1168 2.22343 7.59561 -9.86872e-07 0 0L5.0565e-06 171.921Z" fill="white"/>
</svg>
